/* XPM */
static char * chromium_16x16_xpm[] = {
"16 16 130 2",
"  	c None",
". 	c #729ABE",
"+ 	c #759DC4",
"@ 	c #759EC6",
"# 	c #769EC6",
"$ 	c #759DC3",
"% 	c #7199BC",
"& 	c #6E98BD",
"* 	c #729CC0",
"= 	c #749DC2",
"- 	c #769EC2",
"; 	c #759EC2",
"> 	c #739CC1",
", 	c #709ABE",
"' 	c #6995BB",
") 	c #578AB3",
"! 	c #5F8FB6",
"~ 	c #6592B9",
"{ 	c #6895BA",
"] 	c #6996BB",
"^ 	c #6895BB",
"/ 	c #6693B9",
"( 	c #6090B7",
"_ 	c #588AB3",
": 	c #5286B1",
"< 	c #6A9BC4",
"[ 	c #4F84AF",
"} 	c #5085AF",
"| 	c #5588B2",
"1 	c #598BB4",
"2 	c #568AB3",
"3 	c #5589B3",
"4 	c #5488B2",
"5 	c #8BB6D9",
"6 	c #9AC4E7",
"7 	c #457BA9",
"8 	c #B5CCE1",
"9 	c #C5DAF0",
"0 	c #C4D9EF",
"a 	c #D6E5F3",
"b 	c #C4DBF0",
"c 	c #CBE1F2",
"d 	c #D5E7F5",
"e 	c #DCEBF6",
"f 	c #CFDDE8",
"g 	c #8EBBDF",
"h 	c #76A5CD",
"i 	c #3870A2",
"j 	c #BAD0E3",
"k 	c #91B6DF",
"l 	c #9BBEE3",
"m 	c #9CBEE3",
"n 	c #92B7DF",
"o 	c #DFEAF5",
"p 	c #D9E8F4",
"q 	c #D8E8F4",
"r 	c #D2E2EE",
"s 	c #8FBDE3",
"t 	c #99C4E7",
"u 	c #9EC7EA",
"v 	c #467BAA",
"w 	c #BED4ED",
"x 	c #8AAFDB",
"y 	c #8EB3DD",
"z 	c #8AB0DB",
"A 	c #B7CEE9",
"B 	c #D4E5F3",
"C 	c #8CBAE1",
"D 	c #97C3E6",
"E 	c #99C3E6",
"F 	c #87B4D9",
"G 	c #B0CAE7",
"H 	c #78A5D6",
"I 	c #7DA7D7",
"J 	c #7DA8D7",
"K 	c #A7C5E3",
"L 	c #DBE9F4",
"M 	c #D1E3F2",
"N 	c #84B3DA",
"O 	c #93BFE4",
"P 	c #97C2E6",
"Q 	c #CDE0F1",
"R 	c #5894CC",
"S 	c #649BD0",
"T 	c #5995CD",
"U 	c #D5E3F1",
"V 	c #D8E7F3",
"W 	c #D9E8F3",
"X 	c #D7E6F3",
"Y 	c #C6DAEA",
"Z 	c #79A7CE",
"` 	c #8CBBE2",
" .	c #95C0E5",
"..	c #9AC3E7",
"+.	c #9CC5E7",
"@.	c #C1D8EC",
"#.	c #91B9DC",
"$.	c #92B9DD",
"%.	c #BED6EB",
"&.	c #D6E6F3",
"*.	c #D7E7F3",
"=.	c #B5CBDD",
"-.	c #83B4DE",
";.	c #8DBBE2",
">.	c #94C0E5",
",.	c #9BC5E7",
"'.	c #B1D1EB",
").	c #C1DAEE",
"!.	c #84B4E0",
"~.	c #8AB9E1",
"{.	c #93C0E5",
"].	c #96C1E6",
"^.	c #92BEE4",
"/.	c #D8E8F3",
"(.	c #CDE2F1",
"_.	c #C0DAEF",
":.	c #7EB0DC",
"<.	c #85B5DF",
"[.	c #88B7E0",
"}.	c #87B7E0",
"|.	c #B4D2EB",
"1.	c #C8DFF0",
"2.	c #C2DBEF",
"3.	c #B3D2EC",
"4.	c #6D9BC4",
"5.	c #76A8D3",
"6.	c #83B3DD",
"7.	c #AECFEB",
"8.	c #A3C5E1",
"9.	c #94B5D1",
"                                ",
"          . + @ # $ %           ",
"        & * = - ; > , '         ",
"      ) ! ~ { ] ^ / ( _ :       ",
"    < [ } : } | 1 2 3 4 | |     ",
"  5 6 7 } : 8 9 0 a b c d e f   ",
"  g 6 h i j k l m n o p p q r   ",
"  s t u v w x y y z A p p p B   ",
"  C D E F G H I J H K L p q M   ",
"  N O E P Q R S S T U V W X Y   ",
"  Z `  ...+.@.#.$.%.&.W *.M =.  ",
"    -.;.>.E P ,. .'.p X M ).    ",
"      !.~.s {.].^./.B (._.      ",
"        :.<.[.}.|.1.2.3.        ",
"          4.5.6.7.8.9.          ",
"                                "};
