/* XPM */
static char * chromium_32x32_xpm[] = {
"32 32 384 2",
"  	c None",
". 	c #7098BD",
"+ 	c #729BC2",
"@ 	c #739DC5",
"# 	c #749EC7",
"$ 	c #749DC5",
"% 	c #739BC2",
"& 	c #7198BC",
"* 	c #749CC0",
"= 	c #77A0C5",
"- 	c #77A0C6",
"; 	c #78A0C5",
"> 	c #779FC4",
", 	c #769FC3",
"' 	c #729BBE",
") 	c #6C96BA",
"! 	c #719BC0",
"~ 	c #739CC0",
"{ 	c #759DC1",
"] 	c #769EC2",
"^ 	c #779FC3",
"/ 	c #769EC3",
"( 	c #749DC1",
"_ 	c #719BBF",
": 	c #6E9ABD",
"< 	c #6793B7",
"[ 	c #6592B9",
"} 	c #6995BA",
"| 	c #6C98BC",
"1 	c #6F99BE",
"2 	c #729BC0",
"3 	c #739CC1",
"4 	c #729CC0",
"5 	c #709ABF",
"6 	c #6E99BD",
"7 	c #6B96BB",
"8 	c #6894BA",
"9 	c #6492B8",
"0 	c #5E8EB6",
"a 	c #598BB3",
"b 	c #5E8EB5",
"c 	c #6190B7",
"d 	c #6593B9",
"e 	c #6A96BB",
"f 	c #6B97BB",
"g 	c #6C98BD",
"h 	c #6D98BD",
"i 	c #6D99BD",
"j 	c #6B97BC",
"k 	c #6694B9",
"l 	c #6392B8",
"m 	c #608EB6",
"n 	c #5C8CB4",
"o 	c #5789B2",
"p 	c #5186B1",
"q 	c #4F84AF",
"r 	c #5186B0",
"s 	c #5488B1",
"t 	c #588BB3",
"u 	c #5C8DB4",
"v 	c #618FB7",
"w 	c #6291B8",
"x 	c #6492B9",
"y 	c #6593B8",
"z 	c #6491B9",
"A 	c #6391B8",
"B 	c #5F8EB7",
"C 	c #5D8DB5",
"D 	c #598CB3",
"E 	c #5689B2",
"F 	c #5287B1",
"G 	c #5085B0",
"H 	c #6F9EC6",
"I 	c #4C81AD",
"J 	c #5387B1",
"K 	c #588AB2",
"L 	c #5A8CB4",
"M 	c #5A8BB4",
"N 	c #5A8CB3",
"O 	c #5085AF",
"P 	c #4D81AC",
"Q 	c #9BC6E9",
"R 	c #5285B2",
"S 	c #4D82AE",
"T 	c #4F84B0",
"U 	c #4D83AE",
"V 	c #4E84AF",
"W 	c #6393B9",
"X 	c #6393BA",
"Y 	c #6091B9",
"Z 	c #6191B9",
"` 	c #6192B9",
" .	c #6292B9",
"..	c #6293BA",
"+.	c #90BCE1",
"@.	c #98C3E6",
"#.	c #88B4DA",
"$.	c #4076A5",
"%.	c #4C81AE",
"&.	c #5E8FB6",
"*.	c #B4CBDE",
"=.	c #E3ECF5",
"-.	c #D9E6F4",
";.	c #D9E7F4",
">.	c #D7E5F2",
",.	c #C5DBF0",
"'.	c #C3DAF0",
").	c #C6DCF0",
"!.	c #C9DEF1",
"~.	c #CBE0F2",
"{.	c #CEE2F3",
"].	c #D4E5F4",
"^.	c #D9E8F5",
"/.	c #D6E5F1",
"(.	c #95C1E5",
"_.	c #99C3E6",
":.	c #9CC6E8",
"<.	c #5C8EBA",
"[.	c #4076A6",
"}.	c #759EC1",
"|.	c #EAF1F8",
"1.	c #B8D0EB",
"2.	c #9FC2E5",
"3.	c #A5C5E7",
"4.	c #A0C2E5",
"5.	c #B9D1EB",
"6.	c #E7EEF6",
"7.	c #C7DBEF",
"8.	c #BED6ED",
"9.	c #C6DCEF",
"0.	c #CEE1F1",
"a.	c #D4E5F2",
"b.	c #D9E8F3",
"c.	c #D9E8F4",
"d.	c #83AED2",
"e.	c #94C1E5",
"f.	c #99C3E7",
"g.	c #94BEE2",
"h.	c #3C72A2",
"i.	c #3D73A3",
"j.	c #4C82AD",
"k.	c #6090B7",
"l.	c #F1F5FA",
"m.	c #9BBDE2",
"n.	c #99BCE1",
"o.	c #9DBFE4",
"p.	c #A0C1E4",
"q.	c #9EBFE4",
"r.	c #9ABCE1",
"s.	c #9DBEE3",
"t.	c #EEF3F8",
"u.	c #DAE8F4",
"v.	c #D8E7F4",
"w.	c #C5D5E1",
"x.	c #89B6DB",
"y.	c #94C1E4",
"z.	c #9AC4E7",
"A.	c #689AC3",
"B.	c #3B71A2",
"C.	c #356D9F",
"D.	c #C3D5E4",
"E.	c #B0CAE7",
"F.	c #90B4DD",
"G.	c #94B8E0",
"H.	c #97BBE1",
"I.	c #99BCE2",
"J.	c #90B5DE",
"K.	c #B4CCE8",
"L.	c #ECF3F8",
"M.	c #D8E7F3",
"N.	c #CDDDEA",
"O.	c #8BB9E0",
"P.	c #93C0E5",
"Q.	c #9BC5E8",
"R.	c #3C73A3",
"S.	c #346D9F",
"T.	c #FFFFFF",
"U.	c #81A9D8",
"V.	c #8BB1DB",
"W.	c #8EB3DD",
"X.	c #90B4DE",
"Y.	c #92B6DF",
"Z.	c #91B6DF",
"`.	c #91B5DE",
" +	c #8FB3DD",
".+	c #8BB1DC",
"++	c #81A9D9",
"@+	c #FCFDFD",
"#+	c #D0E2F0",
"$+	c #8CBBE2",
"%+	c #92BFE4",
"&+	c #9AC4E6",
"*+	c #78A6CE",
"=+	c #5282AC",
"-+	c #E7F0F9",
";+	c #7CA6D6",
">+	c #84ACD9",
",+	c #87ADDB",
"'+	c #89B0DB",
")+	c #8AB0DB",
"!+	c #88ADDB",
"~+	c #85ACD9",
"{+	c #E5EDF7",
"]+	c #DCEAF5",
"^+	c #D7E6F3",
"/+	c #D2E4F2",
"(+	c #8AB9E1",
"_+	c #90BEE4",
":+	c #96C2E5",
"<+	c #9EC7EA",
"[+	c #6593BA",
"}+	c #E5EEF8",
"|+	c #72A1D4",
"1+	c #7BA7D7",
"2+	c #7EA9D7",
"3+	c #81AAD8",
"4+	c #82ABD8",
"5+	c #7FA9D7",
"6+	c #7BA6D7",
"7+	c #73A2D4",
"8+	c #DCE7F4",
"9+	c #DEEBF5",
"0+	c #D5E6F3",
"a+	c #D0E3F2",
"b+	c #86B5DE",
"c+	c #8FBDE3",
"d+	c #94C0E5",
"e+	c #85B2D9",
"f+	c #FFFEFE",
"g+	c #6499CF",
"h+	c #70A1D3",
"i+	c #73A3D4",
"j+	c #76A4D5",
"k+	c #77A4D6",
"l+	c #78A4D6",
"m+	c #74A3D5",
"n+	c #669BD0",
"o+	c #F1F4F8",
"p+	c #CADEEE",
"q+	c #81AED7",
"r+	c #8CBBE1",
"s+	c #91BEE4",
"t+	c #E3EFF8",
"u+	c #92B8DE",
"v+	c #649BD0",
"w+	c #679CD1",
"x+	c #6A9ED1",
"y+	c #6B9ED2",
"z+	c #6A9ED2",
"A+	c #689DD1",
"B+	c #649AD0",
"C+	c #8EB5DC",
"D+	c #EBF1F7",
"E+	c #D8E8F4",
"F+	c #D6E6F3",
"G+	c #C1D5E7",
"H+	c #77A3C9",
"I+	c #89B8E1",
"J+	c #8EBCE2",
"K+	c #93C0E4",
"L+	c #98C3E5",
"M+	c #A3C9E9",
"N+	c #F7F9FC",
"O+	c #5E99CE",
"P+	c #5A96CD",
"Q+	c #5D97CD",
"R+	c #5E98CE",
"S+	c #5B96CD",
"T+	c #629BCF",
"U+	c #EBF0F5",
"V+	c #D7E7F3",
"W+	c #D3E5F2",
"X+	c #B2C7D8",
"Y+	c #88B7E1",
"Z+	c #8BBAE1",
"`+	c #B3D3ED",
" @	c #EBF0F6",
".@	c #7FAED8",
"+@	c #468BC8",
"@@	c #4A8DC9",
"#@	c #82B0D8",
"$@	c #ECF1F5",
"%@	c #CDE0F0",
"&@	c #D5E5F2",
"*@	c #C9DFF2",
"=@	c #7FB0D9",
"-@	c #88B7E0",
";@	c #8DBBE1",
">@	c #A2C8E8",
",@	c #CADCEB",
"'@	c #CADCEC",
")@	c #EFF3F6",
"!@	c #D5E4F1",
"~@	c #9EC5E6",
"{@	c #DBE9F4",
"]@	c #D4E6F3",
"^@	c #D1E3F2",
"/@	c #CAE0F1",
"(@	c #BCD5E9",
"_@	c #85B5DF",
":@	c #89B8E0",
"<@	c #91BDE4",
"[@	c #95C0E5",
"}@	c #9AC3E6",
"|@	c #97C2E6",
"1@	c #A5CAE9",
"2@	c #A3C9E8",
"3@	c #8FBCE3",
"4@	c #8DBBE3",
"5@	c #C4DBEF",
"6@	c #D8E8F3",
"7@	c #CBE0F1",
"8@	c #C3DCF0",
"9@	c #7AAAD5",
"0@	c #85B5DE",
"a@	c #90BDE4",
"b@	c #93BFE4",
"c@	c #92BEE4",
"d@	c #A1C6E7",
"e@	c #DCE9F4",
"f@	c #C3DBEF",
"g@	c #B2CEE4",
"h@	c #7FB0DC",
"i@	c #84B5DE",
"j@	c #8BB9E1",
"k@	c #8EBCE3",
"l@	c #97C2E5",
"m@	c #8EBBE2",
"n@	c #CFE2F2",
"o@	c #D5E5F3",
"p@	c #C9DFF1",
"q@	c #C2DBEE",
"r@	c #B7D4ED",
"s@	c #7FB1DD",
"t@	c #83B4DE",
"u@	c #86B6E0",
"v@	c #8DBCE2",
"w@	c #8DBBE2",
"x@	c #A9CCE9",
"y@	c #CFE2F1",
"z@	c #C6DDF0",
"A@	c #BED9EE",
"B@	c #B5D4ED",
"C@	c #7CAFDB",
"D@	c #81B2DD",
"E@	c #87B6E0",
"F@	c #8BB9E2",
"G@	c #89B7E0",
"H@	c #CFE3F1",
"I@	c #CCE1F1",
"J@	c #C9E0F1",
"K@	c #C0DAEE",
"L@	c #B9D6EE",
"M@	c #AFD0EB",
"N@	c #75A6D1",
"O@	c #7EB1DD",
"P@	c #83B3DE",
"Q@	c #85B5E0",
"R@	c #87B7E0",
"S@	c #AACCE8",
"T@	c #C4DCF0",
"U@	c #C1DAEF",
"V@	c #BDD8EE",
"W@	c #B8D5ED",
"X@	c #B1D2ED",
"Y@	c #A1C3DF",
"Z@	c #75A8D4",
"`@	c #7DB1DD",
" #	c #7EB0DC",
".#	c #80B2DD",
"+#	c #84B4DE",
"@#	c #BBD7EE",
"##	c #B7D5ED",
"$#	c #B0D1EC",
"%#	c #ACCFED",
"&#	c #A0C4E2",
"*#	c #6693BB",
"=#	c #70A1CD",
"-#	c #74A7D5",
";#	c #97C1E5",
">#	c #A2C9E8",
",#	c #9EC4E4",
"'#	c #95BBDA",
")#	c #87AAC7",
"                                                                ",
"                                                                ",
"                        . + @ # # $ % &                         ",
"                    * = = - - - - ; = > , '                     ",
"                ) ! ~ { ] , > > ^ / ] ( ~ _ : <                 ",
"              [ } | 1 _ 2 ~ 3 * ~ 4 _ 5 6 7 8 9 0               ",
"            a b c d 8 e f g h i h | j } k l m n o p             ",
"          q r s t u 0 v w x 9 y z A c B C D E F G q q           ",
"        H I G q G r J E K a L M N t E s F G O q G G q P         ",
"        Q R S G G T q O G U V W X Y Y Y Y Y Z ` Z  . ...        ",
"      +.@.#.$.%.G G G q &.*.=.-.;.=.>.,.'.'.).!.~.{.].^./.      ",
"      (._.:.<.[.I G q }.|.1.2.3.3.4.5.6.7.8.9.0.a.b.c.b.c.      ",
"    d.e.f._.g.h.i.j.k.l.m.n.o.p.p.q.r.s.t.u.c.c.c.c.c.c.v.w.    ",
"    x.y._.z.z.A.B.C.D.E.F.G.H.I.I.H.G.J.K.L.M.c.c.c.c.c.v.N.    ",
"    O.P._.z.z.Q.R.S.T.U.V.W.X.Y.Z.`. +.+++@+M.c.c.c.c.;.v.#+    ",
"    $+%+@.&+z.z.*+=+-+;+>+,+'+.+.+)+!+~+;+{+]+c.c.c.c.c.^+/+    ",
"    (+_+:+z.z.z.<+[+}+|+1+2+3+4+4+3+5+6+7+8+9+c.c.c.c.M.0+a+    ",
"    b+c+d+_._.z._.e+f+g+h+i+j+k+l+j+m+h+n+o+M.c.c.c.;.v.a.p+    ",
"    q+r+s+:+z.z.z.@.t+u+v+w+x+y+y+z+A+B+C+D+M.c.c.E+M.F+/+G+    ",
"    H+I+J+K+L+z.z.z.M+N+O+P+Q+R+R+Q+S+T+U+u.c.c.c.b.V+W+0.X+    ",
"      Y+Z+_+(.@.&+z._.`+ @.@+@@@@@+@#@$@%@c.c.c.c.v.&@a+*@      ",
"      =@-@;@s+e.@.z.z._.>@>.$@,@'@)@!@~@{@c.E+c.v.]@^@/@(@      ",
"        _@:@;@<@[@L+f.}@z.@.|@1@2@3@4@5@v.;.6@V+0+^@7@8@        ",
"        9@0@:@r+a@b@:+@.f.z.}@z.[@c@d@e@c.v.F+a.a+7@f@g@        ",
"          h@i@-@j@k@s+K+(.l@@.@.c@m@n@v.F+o@/+n@p@q@r@          ",
"            s@t@u@I+Z+v@c+s+c@%+w@x@F+a./+y@7@z@A@B@            ",
"              C@D@t@E@-@(+Z+$+F@G@H@y@I@J@z@K@L@M@              ",
"                N@O@D@P@_@Q@R@t@S@z@T@U@V@W@X@Y@                ",
"                    Z@`@ #s@.#+#@###B@$#%#&#                    ",
"                        *#=#-#;#>#,#'#)#                        ",
"                                                                ",
"                                                                "};
