/* XPM */
static char * chromium_16x16_xpm[] = {
"16 16 133 2",
"  	c None",
". 	c #739BC0",
"+ 	c #749DC3",
"@ 	c #759EC6",
"# 	c #759EC5",
"$ 	c #749CC2",
"% 	c #729ABE",
"& 	c #6D98BC",
"* 	c #729BBF",
"= 	c #749DC1",
"- 	c #759DC2",
"; 	c #739CC0",
"> 	c #6F99BD",
", 	c #6995BA",
"' 	c #578AB2",
") 	c #5E8EB5",
"! 	c #6491B8",
"~ 	c #6794BA",
"{ 	c #6894BA",
"] 	c #6592B9",
"^ 	c #5F90B6",
"/ 	c #588AB3",
"( 	c #5186B0",
"_ 	c #699AC3",
": 	c #4F84AF",
"< 	c #5185AF",
"[ 	c #4F84AE",
"} 	c #5085AF",
"| 	c #5489B2",
"1 	c #5287B1",
"2 	c #5186B1",
"3 	c #5286B1",
"4 	c #5185B0",
"5 	c #8DB8DC",
"6 	c #9CC5E8",
"7 	c #4278A7",
"8 	c #5085B0",
"9 	c #B8CEE2",
"0 	c #C9DCF1",
"a 	c #C7DBF0",
"b 	c #DBE8F5",
"c 	c #C4DBF1",
"d 	c #CEE1F3",
"e 	c #D8E8F6",
"f 	c #DFECF7",
"g 	c #D3E2ED",
"h 	c #8DBADE",
"i 	c #99C3E6",
"j 	c #75A4CC",
"k 	c #376FA0",
"l 	c #BED2E4",
"m 	c #8DB3DD",
"n 	c #9BBEE2",
"o 	c #9CBEE2",
"p 	c #8FB4DE",
"q 	c #E2EBF5",
"r 	c #D9E8F3",
"s 	c #D9E8F4",
"t 	c #D1E0ED",
"u 	c #8EBCE2",
"v 	c #A0C9EB",
"w 	c #3D74A4",
"x 	c #C4D7EF",
"y 	c #89AFDB",
"z 	c #8DB2DD",
"A 	c #8AAFDB",
"B 	c #B7CEE8",
"C 	c #D7E7F3",
"D 	c #D9E7F4",
"E 	c #D4E4F2",
"F 	c #8BBAE1",
"G 	c #97C2E5",
"H 	c #81AFD6",
"I 	c #B4CDE8",
"J 	c #77A5D5",
"K 	c #7CA7D6",
"L 	c #78A5D5",
"M 	c #A7C4E3",
"N 	c #D8E7F3",
"O 	c #D0E3F1",
"P 	c #83B1D9",
"Q 	c #92BFE3",
"R 	c #99C4E6",
"S 	c #97C2E6",
"T 	c #D0E2F2",
"U 	c #5290CB",
"V 	c #659BCF",
"W 	c #649BCF",
"X 	c #5591CB",
"Y 	c #D8E5F1",
"Z 	c #D8E8F3",
"` 	c #D6E6F2",
" .	c #C6D9E9",
"..	c #7CAAD3",
"+.	c #8CBAE1",
"@.	c #94C0E5",
"#.	c #9AC4E6",
"$.	c #C4D9ED",
"%.	c #92B9DB",
"&.	c #93BADC",
"*.	c #BFD7EA",
"=.	c #D8E8F4",
"-.	c #B8CFE2",
";.	c #83B3DD",
">.	c #94BFE4",
",.	c #98C3E6",
"'.	c #98C2E6",
").	c #91BEE4",
"!.	c #B1CFEA",
"~.	c #D0E3F2",
"{.	c #C1DAEE",
"].	c #84B5DF",
"^.	c #8AB8E1",
"/.	c #8EBDE2",
"(.	c #93BFE4",
"_.	c #95C1E5",
":.	c #90BCE2",
"<.	c #D3E4F2",
"[.	c #CDE1F1",
"}.	c #C0DBF0",
"|.	c #7EB0DB",
"1.	c #85B4DE",
"2.	c #87B7E0",
"3.	c #B4D2EA",
"4.	c #C8DEF0",
"5.	c #C1DBEF",
"6.	c #B3D2EB",
"7.	c #6E9FC8",
"8.	c #75A6D2",
"9.	c #82B2DD",
"0.	c #AED0EB",
"a.	c #A1C4E0",
"b.	c #96B9D6",
"                                ",
"          . + @ # $ %           ",
"        & * = - = ; > ,         ",
"      ' ) ! ~ , { ] ^ / (       ",
"    _ : : < [ } | 1 2 ( 3 4     ",
"  5 6 7 8 : 9 0 a b c d e f g   ",
"  h i j k l m n o p q r s s t   ",
"  u i v w x y z m A B C s D E   ",
"  F G i H I J K K L M r r N O   ",
"  P Q R S T U V W X Y N Z `  .  ",
"  ..+.@.R #.$.%.&.*.` =.C O -.  ",
"    ;.+.>.,.S '.).!.D ` ~.{.    ",
"      ].^./.(._.:.s <.[.}.      ",
"        |.1.2.2.3.4.5.6.        ",
"          7.8.9.0.a.b.          ",
"                                "};
