/* XPM */
static char * chrome_16x16_xpm[] = {
"16 16 135 2",
"  	c None",
". 	c #E35648",
"+ 	c #EA6353",
"@ 	c #EF6857",
"# 	c #EE6655",
"$ 	c #E85A4C",
"% 	c #E24C41",
"& 	c #E6463D",
"* 	c #E94F43",
"= 	c #EB5548",
"- 	c #EC574A",
"; 	c #EB5448",
"> 	c #E7463D",
", 	c #E43C37",
"' 	c #E23130",
") 	c #E43934",
"! 	c #E53E38",
"~ 	c #E6423B",
"{ 	c #E6443C",
"] 	c #E43834",
"^ 	c #E23030",
"/ 	c #E1292B",
"( 	c #9C5D32",
"_ 	c #E02529",
": 	c #E02A2B",
"< 	c #E12E2E",
"[ 	c #E22B2A",
"} 	c #E32F2F",
"| 	c #E3332D",
"1 	c #E12F28",
"2 	c #E02C2B",
"3 	c #DF2828",
"4 	c #DF2626",
"5 	c #DE2526",
"6 	c #47AD44",
"7 	c #4DB749",
"8 	c #D31F23",
"9 	c #DE2227",
"0 	c #DF252A",
"a 	c #E0B3BA",
"b 	c #B0D7F1",
"c 	c #B1D7F3",
"d 	c #E4E4B7",
"e 	c #EEC816",
"f 	c #F2CD10",
"g 	c #F7D30C",
"h 	c #FAD709",
"i 	c #EFC809",
"j 	c #4AB146",
"k 	c #4CB849",
"l 	c #7F7938",
"m 	c #D5161C",
"n 	c #D8AEB7",
"o 	c #5A95CF",
"p 	c #68A1D5",
"q 	c #69A1D6",
"r 	c #5B96D0",
"s 	c #E5E0B0",
"t 	c #FCD102",
"u 	c #FCD208",
"v 	c #F5CC0B",
"w 	c #4AB347",
"x 	c #4DB849",
"y 	c #47BE4B",
"z 	c #B52B21",
"A 	c #89BCE2",
"B 	c #4D8CCA",
"C 	c #5491CC",
"D 	c #8CB5E6",
"E 	c #FDD208",
"F 	c #FCD209",
"G 	c #F9CE0C",
"H 	c #4AB047",
"I 	c #4CB848",
"J 	c #4DB748",
"K 	c #65943E",
"L 	c #80ADD9",
"M 	c #3880C2",
"N 	c #3C82C4",
"O 	c #3D82C4",
"P 	c #7EADDF",
"Q 	c #FDD309",
"R 	c #F7CA0F",
"S 	c #46A645",
"T 	c #4CB649",
"U 	c #48B745",
"V 	c #A2C7B4",
"W 	c #1C6BAC",
"X 	c #2875B4",
"Y 	c #1C6BAD",
"Z 	c #D5D4A8",
"` 	c #FBD00B",
" .	c #EDBF13",
"..	c #409640",
"+.	c #4AB048",
"@.	c #4CB749",
"#.	c #51B94C",
"$.	c #9EC3B0",
"%.	c #6D93BE",
"&.	c #6F95C0",
"*.	c #98BEB3",
"=.	c #F2CF10",
"-.	c #FBD109",
";.	c #F7CA10",
">.	c #DCAD19",
",.	c #46A245",
"'.	c #4AB148",
").	c #48B644",
"!.	c #50B94B",
"~.	c #4BB149",
"{.	c #94B624",
"].	c #FED208",
"^.	c #EBBA1B",
"/.	c #45A146",
"(.	c #49AD48",
"_.	c #4BB448",
":.	c #4DAE44",
"<.	c #FDD10A",
"[.	c #F9CD0E",
"}.	c #F4C614",
"|.	c #EBB81E",
"1.	c #3F9643",
"2.	c #46A346",
"3.	c #49AA47",
"4.	c #45AB48",
"5.	c #B7BA26",
"6.	c #F1C118",
"7.	c #ECBA1D",
"8.	c #E1AC23",
"9.	c #307C3A",
"0.	c #37883F",
"a.	c #59933D",
"b.	c #E3A624",
"c.	c #D39C24",
"d.	c #C18D23",
"                                ",
"          . + @ # $ %           ",
"        & * = - ; * > ,         ",
"      ' ) ! ~ { ~ ! ] ^ /       ",
"    ( _ : < [ } | 1 2 3 4 5     ",
"  6 7 8 9 0 a b c d e f g h i   ",
"  j k l m n o p q r s t u u v   ",
"  w x y z A B C C B D E F u G   ",
"  H I J K L M N O M P Q F F R   ",
"  S T x U V W X X Y Z t u `  .  ",
"  ..+.@.x #.$.%.&.*.=.F -.;.>.  ",
"    ,.'.@.x ).!.~.{.].` ;.^.    ",
"      /.(._.@.k :.<.[.}.|.      ",
"        1.2.3.4.5.6.7.8.        ",
"          9.0.a.b.c.d.          ",
"                                "};
