/* XPM */
static char * chrome_32x32_xpm[] = {
"32 32 423 2",
"  	c None",
". 	c #E25E4E",
"+ 	c #E96755",
"@ 	c #ED6957",
"# 	c #EF6A58",
"$ 	c #EF6957",
"% 	c #EC6655",
"& 	c #E75E4E",
"* 	c #E05647",
"= 	c #E75347",
"- 	c #ED5B4D",
"; 	c #ED6050",
"> 	c #EE6454",
", 	c #EF6655",
"' 	c #EF6756",
") 	c #EE6554",
"! 	c #ED6151",
"~ 	c #EC5C4D",
"{ 	c #EB574A",
"] 	c #EA5246",
"^ 	c #E54A40",
"/ 	c #E2433B",
"( 	c #E84B41",
"_ 	c #E95044",
": 	c #EA5447",
"< 	c #EB584A",
"[ 	c #EC5A4C",
"} 	c #EC5B4C",
"| 	c #EB5548",
"1 	c #E95145",
"2 	c #E84C42",
"3 	c #E7473E",
"4 	c #E6423B",
"5 	c #DF3A34",
"6 	c #E43B36",
"7 	c #E54039",
"8 	c #E7453D",
"9 	c #E7483F",
"0 	c #E84C41",
"a 	c #E94F43",
"b 	c #EA5145",
"c 	c #EA5045",
"d 	c #E94F44",
"e 	c #E7493F",
"f 	c #E54139",
"g 	c #E53C37",
"h 	c #E33733",
"i 	c #E23230",
"j 	c #E33633",
"k 	c #E43A35",
"l 	c #E53D37",
"m 	c #E5413A",
"n 	c #E6443C",
"o 	c #E7453E",
"p 	c #E7483E",
"q 	c #E8483F",
"r 	c #E6433C",
"s 	c #E53E38",
"t 	c #E33632",
"u 	c #E12D2D",
"v 	c #E1292B",
"w 	c #E0282A",
"x 	c #E12C2D",
"y 	c #E1302F",
"z 	c #E33331",
"A 	c #E43934",
"B 	c #E53F38",
"C 	c #E53D38",
"D 	c #E43C37",
"E 	c #E43A36",
"F 	c #E43834",
"G 	c #E23331",
"H 	c #E22F2E",
"I 	c #E12C2C",
"J 	c #DF2429",
"K 	c #DE2226",
"L 	c #886833",
"M 	c #DE2026",
"N 	c #E02629",
"O 	c #E12F2E",
"P 	c #E2312F",
"Q 	c #E33432",
"R 	c #E33532",
"S 	c #E33332",
"T 	c #E2302F",
"U 	c #E12E2E",
"V 	c #E02B2C",
"W 	c #E02528",
"X 	c #DF2327",
"Y 	c #DE2126",
"Z 	c #DA2024",
"` 	c #47BE4B",
" .	c #C22E26",
"..	c #DB2126",
"+.	c #DF2328",
"@.	c #E02529",
"#.	c #E0272A",
"$.	c #E02A2C",
"%.	c #E1292A",
"&.	c #E02627",
"*.	c #E44445",
"=.	c #E44444",
"-.	c #E03824",
";.	c #E03826",
">.	c #E1382A",
",.	c #E13628",
"'.	c #E03527",
").	c #E03425",
"!.	c #E03325",
"~.	c #E03324",
"{.	c #E13425",
"].	c #4AB346",
"^.	c #4DB748",
"/.	c #6B9440",
"(.	c #D71720",
"_.	c #DC2126",
":.	c #DE2227",
"<.	c #E13539",
"[.	c #F0B3B3",
"}.	c #F9FBF9",
"|.	c #E5F1F7",
"1.	c #E6F2F8",
"2.	c #FBFFFC",
"3.	c #F2E7B0",
"4.	c #E9C229",
"5.	c #E9BF15",
"6.	c #EBC214",
"7.	c #EDC513",
"8.	c #EFC712",
"9.	c #F1C911",
"0.	c #F2CC10",
"a.	c #F5CF0D",
"b.	c #F9D30B",
"c.	c #F5CF09",
"d.	c #4CB849",
"e.	c #4DB849",
"f.	c #48BD4A",
"g.	c #AD472C",
"h.	c #D11E21",
"i.	c #DF2126",
"j.	c #E35256",
"k.	c #F3F8F9",
"l.	c #A1C3E3",
"m.	c #70A7DA",
"n.	c #75ABDC",
"o.	c #71A8DA",
"p.	c #A4C5E4",
"q.	c #F7F8FC",
"r.	c #F1CE45",
"s.	c #F2C510",
"t.	c #F5C90E",
"u.	c #F8CD0C",
"v.	c #FACF0A",
"w.	c #FCD208",
"x.	c #FCD20A",
"y.	c #43A541",
"z.	c #4DB749",
"A.	c #56AB45",
"B.	c #D3161F",
"C.	c #D21E22",
"D.	c #DD2126",
"E.	c #E03439",
"F.	c #F0F6F6",
"G.	c #6EA2D4",
"H.	c #659ED4",
"I.	c #6BA2D6",
"J.	c #6EA6D8",
"K.	c #6FA6D9",
"L.	c #6CA3D7",
"M.	c #669ED4",
"N.	c #71A4D5",
"O.	c #F5F6FB",
"P.	c #FBD41C",
"Q.	c #FCD209",
"R.	c #FBD10A",
"S.	c #E6BF09",
"T.	c #47AC44",
"U.	c #4CB749",
"V.	c #4BB949",
"W.	c #8F6131",
"X.	c #CD1A1F",
"Y.	c #D1191D",
"Z.	c #EAB1B2",
"`.	c #8BB2D8",
" +	c #5893CD",
".+	c #5E98D0",
"++	c #629BD2",
"@+	c #659DD4",
"#+	c #639BD2",
"$+	c #5894CE",
"%+	c #91B7DB",
"&+	c #F8EAAB",
"*+	c #FCD104",
"=+	c #F0C60B",
"-+	c #49AF46",
";+	c #4BB749",
">+	c #BF1B1C",
",+	c #C8161A",
"'+	c #ECF5F5",
")+	c #4184C6",
"!+	c #4E8DCB",
"~+	c #5491CC",
"{+	c #5A94CF",
"]+	c #5A95CF",
"^+	c #5591CC",
"/+	c #508ECB",
"(+	c #4285C7",
"_+	c #F4F5FC",
":+	c #FCD102",
"<+	c #FBD10B",
"[+	c #F6CA0D",
"}+	c #49B047",
"|+	c #4BB648",
"1+	c #747B36",
"2+	c #C73137",
"3+	c #C6DCEA",
"4+	c #3A80C3",
"5+	c #4587C7",
"6+	c #498AC9",
"7+	c #4C8CCA",
"8+	c #4D8CCA",
"9+	c #4687C7",
"0+	c #CDDDF1",
"a+	c #FAD528",
"b+	c #FAD10B",
"c+	c #F8CB0E",
"d+	c #49AE47",
"e+	c #4CB549",
"f+	c #48BF4B",
"g+	c #AD493C",
"h+	c #C1D8E7",
"i+	c #317CC0",
"j+	c #3981C3",
"k+	c #3E83C4",
"l+	c #4386C6",
"m+	c #3A81C3",
"n+	c #307BC0",
"o+	c #C9DAEF",
"p+	c #F9D629",
"q+	c #FBD109",
"r+	c #FACF0C",
"s+	c #F6C810",
"t+	c #47A945",
"u+	c #4BB348",
"v+	c #5D943B",
"w+	c #E7E5EC",
"x+	c #2474B8",
"y+	c #327DBE",
"z+	c #357EC0",
"A+	c #367FC1",
"B+	c #367FC2",
"C+	c #377FC2",
"D+	c #357EC1",
"E+	c #2675B8",
"F+	c #EAEDF6",
"G+	c #FBD108",
"H+	c #F9CE0E",
"I+	c #F0C312",
"J+	c #43A142",
"K+	c #4AB048",
"L+	c #4BB649",
"M+	c #48B845",
"N+	c #BBD7B8",
"O+	c #6095C0",
"P+	c #2774B4",
"Q+	c #2A77B7",
"R+	c #2C78B9",
"S+	c #2E79BA",
"T+	c #2B77B7",
"U+	c #2875B4",
"V+	c #679BC4",
"W+	c #F2E5A9",
"X+	c #FAD00B",
"Y+	c #F7CB10",
"Z+	c #E7BA14",
"`+	c #3E933E",
" @	c #49AD47",
".@	c #5CBC59",
"+@	c #DFDFE4",
"@@	c #2970AA",
"#@	c #206DAA",
"$@	c #226FAD",
"%@	c #226FAE",
"&@	c #2C72AB",
"*@	c #E3E5ED",
"=@	c #F9D41F",
"-@	c #FBD209",
";@	c #FAD10A",
">@	c #F9CD0D",
",@	c #F4C713",
"'@	c #D7AB15",
")@	c #48A847",
"!@	c #4AAF48",
"~@	c #4BB549",
"{@	c #4CB748",
"]@	c #73C171",
"^@	c #DCDCE2",
"/@	c #5687B1",
"(@	c #105B99",
"_@	c #17609D",
":@	c #5A8AB3",
"<@	c #E2E3E9",
"[@	c #C7C950",
"}@	c #FDD207",
"|@	c #F6C911",
"1@	c #F2C219",
"2@	c #439C43",
"3@	c #49AA47",
"4@	c #4BB148",
"5@	c #5DBB59",
"6@	c #BAD6B7",
"7@	c #DCDBE3",
"8@	c #AFBFD2",
"9@	c #B0C0D3",
"0@	c #E0DFE7",
"a@	c #B9D3B8",
"b@	c #5AA651",
"c@	c #FFD206",
"d@	c #FAD00C",
"e@	c #F8CB10",
"f@	c #F2C316",
"g@	c #E6B51B",
"h@	c #46A346",
"i@	c #48AB47",
"j@	c #49B745",
"k@	c #4BB747",
"l@	c #64BD61",
"m@	c #63BC61",
"n@	c #44AA44",
"o@	c #3AA142",
"p@	c #BFC01B",
"q@	c #F7CB0F",
"r@	c #F2C415",
"s@	c #EEBB1B",
"t@	c #3E9341",
"u@	c #49AB47",
"v@	c #4AB148",
"w@	c #4BB748",
"x@	c #4DB848",
"y@	c #4AB448",
"z@	c #47AB46",
"A@	c #65AB39",
"B@	c #FFD406",
"C@	c #F9CE0D",
"D@	c #F7CA10",
"E@	c #EDBB1B",
"F@	c #DDAA1E",
"G@	c #419843",
"H@	c #46A246",
"I@	c #48AA47",
"J@	c #49AF48",
"K@	c #49B147",
"L@	c #3EA849",
"M@	c #E1CB12",
"N@	c #FACF0D",
"O@	c #F8CC0F",
"P@	c #F5C812",
"Q@	c #F1C217",
"R@	c #ECBA1C",
"S@	c #E4AF21",
"T@	c #409743",
"U@	c #45A046",
"V@	c #47A746",
"W@	c #49AC47",
"X@	c #4BB449",
"Y@	c #4CB649",
"Z@	c #4CB648",
"`@	c #47AF47",
" #	c #88B730",
".#	c #FED00B",
"+#	c #F8CB0F",
"@#	c #F6C813",
"##	c #F3C416",
"$#	c #EFBF19",
"%#	c #EAB71E",
"&#	c #E3AD23",
"*#	c #3D9242",
"=#	c #439A45",
"-#	c #46A146",
";#	c #47A646",
">#	c #46AA47",
",#	c #F2C813",
"'#	c #F5C713",
")#	c #F4C515",
"!#	c #F2C217",
"~#	c #EFBE1A",
"{#	c #EBB91E",
"]#	c #E5B122",
"^#	c #DEA724",
"/#	c #35873E",
"(#	c #3E9443",
"_#	c #429944",
":#	c #459E45",
"<#	c #47A546",
"[#	c #48A747",
"}#	c #44A446",
"|#	c #A4B22D",
"1#	c #F0BF1A",
"2#	c #EEBC1B",
"3#	c #ECB91D",
"4#	c #E8B51F",
"5#	c #E4B022",
"6#	c #E0A926",
"7#	c #D19A24",
"8#	c #34863E",
"9#	c #3B9043",
"0#	c #409744",
"a#	c #429945",
"b#	c #4F9841",
"c#	c #EBB221",
"d#	c #E4AF23",
"e#	c #E2AC24",
"f#	c #DFA825",
"g#	c #DDA427",
"h#	c #D19925",
"i#	c #2A7236",
"j#	c #307E3B",
"k#	c #2E843F",
"l#	c #AE972D",
"m#	c #D69D28",
"n#	c #D29927",
"o#	c #C89125",
"p#	c #B78421",
"                                                                ",
"                                                                ",
"                        . + @ # $ % & *                         ",
"                    = - ; > , ' ) ! ~ { ] ^                     ",
"                / ( _ : < [ ~ ~ } < | 1 2 3 4 5                 ",
"              6 7 8 9 0 a b ] ] c d 0 e 8 f g h i               ",
"            i j k l m n o p q q 3 o r f s k t i u v             ",
"          w x y z j A 6 l s B B C D E F j G H I w J K           ",
"        L M N v x O P G Q R j j R S i T U V w W X Y Y Z         ",
"        `  ...+.@.#.v $.I %.&.*.=.-.;.>.,.'.).!.!.~.!.{.        ",
"      ].^./.(._.Y :.X X <.[.}.|.1.2.3.4.5.6.7.8.9.0.a.b.c.      ",
"      d.e.f.g.h._.i.Y j.k.l.m.n.n.o.p.q.r.s.t.u.v.w.w.w.x.      ",
"    y.z.e.^.A.B.C.D.E.F.G.H.I.J.K.L.M.N.O.P.w.w.Q.Q.Q.w.R.S.    ",
"    T.U.e.e.V.W.X.Y.Z.`. +.+++@+@+#+.+$+%+&+*+Q.Q.Q.Q.w.R.=+    ",
"    -+;+e.e.z.V.>+,+'+)+!+~+$+{+]+$+^+/+(+_+:+Q.Q.Q.Q.w.<+[+    ",
"    }+|+e.e.e.d.1+2+3+4+5+6+7+!+!+8+6+9+4+0+a+Q.Q.Q.Q.Q.b+c+    ",
"    d+e+d.e.e.e.f+g+h+i+j+k+)+l+l+)+k+m+n+o+p+Q.Q.Q.Q.q+r+s+    ",
"    t+u+U.z.e.e.^.v+w+x+y+z+A+B+C+A+D+y+E+F+*+Q.Q.Q.G+R.H+I+    ",
"    J+K+L+d.d.e.e.M+N+O+P+Q+R+S+S+R+T+U+V+W+*+Q.Q.Q.q+X+Y+Z+    ",
"    `+ @u+;+e.e.e.e..@+@@@#@$@%@%@$@#@&@*@=@-@Q.Q.w.;@>@,@'@    ",
"      )@!@~@U.z.e.e.{@]@^@/@(@_@_@(@:@<@[@}@Q.Q.w.q+r+|@1@      ",
"      2@3@4@e+U.z.e.e.{@5@6@7@8@9@0@a@b@c@Q.Q.w.q+d@e@f@g@      ",
"        h@i@4@e+U.e.d.e.e.j@k@l@m@n@o@p@w.G+Q.R.r+q@r@s@        ",
"        t@h@u@v@~@w@d.z.d.e.e.x@y@z@A@B@Q.q+X+C@D@r@E@F@        ",
"          G@H@I@J@u+e+;+U.d.e.e.K@L@M@R.X+N@O@P@Q@R@S@          ",
"            T@U@V@W@K+u+X@Y@L+Z@`@ #.#H++#@###$#%#&#            ",
"              *#=#-#;#3@ @!@v@d+>#,#'#)#!#~#{#]#^#              ",
"                /#(#_#:#H@<#[#}#|#1#2#3#4#5#6#7#                ",
"                    8#9#(#0#a#b#c#d#e#f#g#h#                    ",
"                        i#j#k#l#m#n#o#p#                        ",
"                                                                ",
"                                                                "};
