/* XPM */
static char * chrome_16x16_xpm[] = {
"16 16 144 2",
"  	c None",
". 	c #E65649",
"+ 	c #EA6352",
"@ 	c #EE6857",
"# 	c #ED6655",
"$ 	c #E85A4B",
"% 	c #E34D41",
"& 	c #E6453C",
"* 	c #E84E42",
"= 	c #EA5447",
"- 	c #EA5749",
"; 	c #E84E43",
"> 	c #E6463D",
", 	c #E33C36",
"' 	c #E23130",
") 	c #E33733",
"! 	c #E43E38",
"~ 	c #E5423A",
"{ 	c #E6433B",
"] 	c #E5413A",
"^ 	c #E43D37",
"/ 	c #E33834",
"( 	c #E2302E",
"_ 	c #E1282B",
": 	c #9B5C32",
"< 	c #DF2428",
"[ 	c #E0292B",
"} 	c #E12D2D",
"| 	c #E12A29",
"1 	c #E12827",
"2 	c #E12C25",
"3 	c #E02A27",
"4 	c #DF272B",
"5 	c #DF2327",
"6 	c #DE2026",
"7 	c #DD2026",
"8 	c #48B045",
"9 	c #49BB49",
"0 	c #D51B21",
"a 	c #DE2126",
"b 	c #E2B6BC",
"c 	c #B0DDF7",
"d 	c #B1DCF9",
"e 	c #E6E9B9",
"f 	c #EDC910",
"g 	c #F2D10E",
"h 	c #F7D60B",
"i 	c #FBDB08",
"j 	c #F2CD08",
"k 	c #49B046",
"l 	c #4DB748",
"m 	c #7E7837",
"n 	c #D4151B",
"o 	c #DBB2B9",
"p 	c #5592CD",
"q 	c #68A0D5",
"r 	c #69A0D5",
"s 	c #5693CD",
"t 	c #E7E2B3",
"u 	c #FCD101",
"v 	c #FCD209",
"w 	c #FCD208",
"x 	c #F3CA0A",
"y 	c #49B247",
"z 	c #4DB849",
"A 	c #44C24B",
"B 	c #B62018",
"C 	c #89C2E8",
"D 	c #4C8CCA",
"E 	c #5390CC",
"F 	c #4E8CCA",
"G 	c #8AB5ED",
"H 	c #FDD100",
"I 	c #F8CD0C",
"J 	c #49AF47",
"K 	c #4CB749",
"L 	c #608F37",
"M 	c #82B0DE",
"N 	c #3880C1",
"O 	c #3B81C4",
"P 	c #3C81C4",
"Q 	c #3880C2",
"R 	c #7CACE6",
"S 	c #FDD101",
"T 	c #FBD108",
"U 	c #F6C90F",
"V 	c #45A544",
"W 	c #4BB648",
"X 	c #4CB848",
"Y 	c #47B844",
"Z 	c #A6C9B6",
"` 	c #1567A9",
" .	c #2874B4",
"..	c #1668A9",
"+.	c #D8D6AB",
"@.	c #FCD102",
"#.	c #FAD00A",
"$.	c #EBBE13",
"%.	c #419841",
"&.	c #4AB048",
"*.	c #4CB649",
"=.	c #4DB749",
"-.	c #A3C5B2",
";.	c #7193C2",
">.	c #7295C4",
",.	c #99BFB8",
"'.	c #F3CE0B",
").	c #FBD109",
"!.	c #F7CA10",
"~.	c #E0B119",
"{.	c #44A145",
"].	c #4AB148",
"^.	c #4BB748",
"/.	c #47B643",
"(.	c #4BB745",
"_.	c #46AF44",
":.	c #91B522",
"<.	c #FCD107",
"[.	c #F6CA0F",
"}.	c #EBB91B",
"|.	c #45A146",
"1.	c #49AD47",
"2.	c #4BB448",
"3.	c #4BB649",
"4.	c #4CB748",
"5.	c #47AC45",
"6.	c #FFD208",
"7.	c #F8CD0E",
"8.	c #F4C613",
"9.	c #ECB81D",
"0.	c #3F9543",
"a.	c #46A245",
"b.	c #48A946",
"c.	c #44AA47",
"d.	c #B7BA26",
"e.	c #F0C017",
"f.	c #EBBA1C",
"g.	c #E1AB23",
"h.	c #307D3A",
"i.	c #36873E",
"j.	c #56913D",
"k.	c #E5A623",
"l.	c #D19A24",
"m.	c #C48F23",
"                                ",
"          . + @ # $ %           ",
"        & * = - = ; > ,         ",
"      ' ) ! ~ { ] ^ / ( _       ",
"    : < [ } | 1 2 3 4 5 6 7     ",
"  8 9 0 a a b c d e f g h i j   ",
"  k l m n o p q r s t u v w x   ",
"  y z A B C D E E F G H v w I   ",
"  J K l L M N O P Q R S v T U   ",
"  V W X Y Z `  . ...+.@.w #.$.  ",
"  %.&.*.=.=.-.;.>.,.'.w ).!.~.  ",
"    {.].^.K /.(._.:.<.#.[.}.    ",
"      |.1.2.3.4.5.6.7.8.9.      ",
"        0.a.b.c.d.e.f.g.        ",
"          h.i.j.k.l.m.          ",
"                                "};
