/* XPM */
static char * emacs_16x16_xpm[] = {
"16 16 177 2",
"  	c None",
". 	c #5550A8",
"+ 	c #5551AA",
"@ 	c #5753AB",
"# 	c #5753AC",
"$ 	c #5651AB",
"% 	c #534FA9",
"& 	c #5550A7",
"* 	c #5752AA",
"= 	c #5B57AB",
"- 	c #6864B1",
"; 	c #7571B8",
"> 	c #7B78BB",
", 	c #7C79BC",
"' 	c #716DB7",
") 	c #5F5CAF",
"! 	c #504CA7",
"~ 	c #5652A8",
"{ 	c #5854A9",
"] 	c #605DAD",
"^ 	c #7470B8",
"/ 	c #8481BF",
"( 	c #8C8AC4",
"_ 	c #8F8CC5",
": 	c #A7A5D2",
"< 	c #D0CFE7",
"[ 	c #F4F4F9",
"} 	c #BCBADD",
"| 	c #5551A9",
"1 	c #5854A8",
"2 	c #5F5AAD",
"3 	c #6D6AB4",
"4 	c #DCDBEC",
"5 	c #E8E7F3",
"6 	c #E8E8F3",
"7 	c #E1E0EF",
"8 	c #D5D5E9",
"9 	c #EBEBF5",
"0 	c #ECEBF5",
"a 	c #5C58AB",
"b 	c #5A56AB",
"c 	c #6663B0",
"d 	c #7B79BB",
"e 	c #C6C4E1",
"f 	c #C7C7E2",
"g 	c #B6B5D9",
"h 	c #B5B4D9",
"i 	c #BDBCDD",
"j 	c #CECDE6",
"k 	c #B2B0D7",
"l 	c #5956AA",
"m 	c #5B58AB",
"n 	c #6866B2",
"o 	c #7F7CBD",
"p 	c #8F8DC5",
"q 	c #DAD9EC",
"r 	c #D5D4E9",
"s 	c #9A98CB",
"t 	c #9593C8",
"u 	c #8885C1",
"v 	c #7371B7",
"w 	c #625EAE",
"x 	c #5D59AC",
"y 	c #36337F",
"z 	c #78778D",
"A 	c #5955A8",
"B 	c #5B57AA",
"C 	c #5C59AB",
"D 	c #6360AF",
"E 	c #7471B7",
"F 	c #8987C2",
"G 	c #9391C7",
"H 	c #CFCEE6",
"I 	c #DFE0EF",
"J 	c #8F8EC5",
"K 	c #7774B9",
"L 	c #6A67B2",
"M 	c #3F3C85",
"N 	c #727286",
"O 	c #26255B",
"P 	c #5A55A8",
"Q 	c #5D5AAB",
"R 	c #E2E2F1",
"S 	c #EAEAF4",
"T 	c #E9E9F4",
"U 	c #E7E7F3",
"V 	c #D7D6EB",
"W 	c #E6E7F3",
"X 	c #8988C2",
"Y 	c #6966B2",
"Z 	c #4F4D95",
"` 	c #6A6A82",
" .	c #15154A",
"..	c #504C96",
"+.	c #5A56A9",
"@.	c #5A57AA",
"#.	c #A5A4D2",
"$.	c #EDEDF7",
"%.	c #EDEDF6",
"&.	c #EFEFF7",
"*.	c #BEBEDD",
"=.	c #8A89C2",
"-.	c #7F7DBD",
";.	c #7876B9",
">.	c #7270B6",
",.	c #5F5DA3",
"'.	c #5D5E7A",
").	c #070640",
"!.	c #4A488C",
"~.	c #5855A9",
"{.	c #5B57A9",
"].	c #5B59AA",
"^.	c #8D8BC4",
"/.	c #E4E4F1",
"(.	c #EEEEF6",
"_.	c #8E8CC5",
":.	c #6F6DB4",
"<.	c #7775B9",
"[.	c #7977BA",
"}.	c #7674B8",
"|.	c #6261A9",
"1.	c #55547C",
"2.	c #111146",
"3.	c #464382",
"4.	c #5A57A9",
"5.	c #5855A8",
"6.	c #A5A3D1",
"7.	c #E5E5F2",
"8.	c #CECDE5",
"9.	c #8B8AC3",
"0.	c #7A78BA",
"a.	c #807EBE",
"b.	c #817FBE",
"c.	c #555481",
"d.	c #1E1E53",
"e.	c #413F79",
"f.	c #5C59AA",
"g.	c #5D5BAC",
"h.	c #5D5BAB",
"i.	c #7E7DBC",
"j.	c #CECEE6",
"k.	c #F0EFF7",
"l.	c #E3E3F1",
"m.	c #BFBEDE",
"n.	c #4A497B",
"o.	c #2E2E5F",
"p.	c #3B3A6D",
"q.	c #6B69B0",
"r.	c #5E5BAC",
"s.	c #5F5CAC",
"t.	c #706EB6",
"u.	c #8684C0",
"v.	c #9291C7",
"w.	c #B4B3D8",
"x.	c #9797B2",
"y.	c #232358",
"z.	c #6B6B81",
"A.	c #D8D7E7",
"B.	c #6865B1",
"C.	c #5B59AB",
"D.	c #5B58A8",
"E.	c #9694C9",
"F.	c #B7B6DA",
"G.	c #BEBED8",
"H.	c #232357",
"I.	c #63627B",
"J.	c #BAB9D5",
"K.	c #5A57A7",
"L.	c #6765B2",
"M.	c #1D1D57",
"N.	c #2C2B5D",
"O.	c #625FA5",
"P.	c #615EAD",
"Q.	c #403E87",
"R.	c #292860",
"S.	c #57559F",
"T.	c #5D5AAA",
"          . + @ # $ %           ",
"      & * = - ; > , ' ) !       ",
"    ~ { ] ^ / ( _ : < [ } |     ",
"    1 2 3 4 5 6 6 7 8 9 0 a .   ",
"  1 b c d e 0 f g h i j k a {   ",
"  l m n o p q r s t u v w x y z ",
"A B C D E F G H I J K L D M N O ",
"P m Q G R S T U V W X Y Z `  ...",
"+.@.#.$.%.&.*.=.-.;.>.,.'.).!.~.",
"{.].^./.(._.:.<.[.}.|.1.2.3.4.5.",
"  Q Q 6.7.8.9.0.a.b.c.d.e.f.m   ",
"  f.g.h.i.j.k.l.m.n.o.p.q.Q @.  ",
"    r.s.t.u.v.w.x.y.z.A.B.C.    ",
"    D.h.n E.F.G.H.I.J.G C K.    ",
"        h.] L.M.N.O.P.C         ",
"            Q.R.S.T.            "};
