/* XPM */
static char * emacs_32x32_xpm[] = {
"32 32 528 2",
"  	c None",
". 	c #5450A9",
"+ 	c #544FA8",
"@ 	c #5450AA",
"# 	c #544FA7",
"$ 	c #5551AA",
"% 	c #5651AA",
"& 	c #5752AA",
"* 	c #5954AC",
"= 	c #5B57AD",
"- 	c #5C57AD",
"; 	c #5A56AD",
"> 	c #5652AB",
", 	c #534EA9",
"' 	c #5651A9",
") 	c #5652AA",
"! 	c #5652A9",
"~ 	c #5753AA",
"{ 	c #5C59AC",
"] 	c #635FAF",
"^ 	c #6865B2",
"/ 	c #6C69B5",
"( 	c #706BB5",
"_ 	c #6F6CB6",
": 	c #6E6AB5",
"< 	c #6865B3",
"[ 	c #625EB0",
"} 	c #5A56AC",
"| 	c #5551AB",
"1 	c #5551A7",
"2 	c #5753A9",
"3 	c #5C58AA",
"4 	c #6360AF",
"5 	c #6D69B4",
"6 	c #7370B6",
"7 	c #7976B9",
"8 	c #7C79BB",
"9 	c #7F7DBD",
"0 	c #827FBF",
"a 	c #817FBE",
"b 	c #7F7CBD",
"c 	c #7A77BB",
"d 	c #736FB8",
"e 	c #6864B2",
"f 	c #5854AB",
"g 	c #524DA9",
"h 	c #5652A7",
"i 	c #5753A8",
"j 	c #5955A8",
"k 	c #5E5AAB",
"l 	c #6865B1",
"m 	c #716DB5",
"n 	c #7875B9",
"o 	c #7E7BBC",
"p 	c #8481BF",
"q 	c #8884C1",
"r 	c #8C89C3",
"s 	c #A7A6D2",
"t 	c #BCBBDD",
"u 	c #CFCFE7",
"v 	c #E3E2F0",
"w 	c #F1F1F7",
"x 	c #F5F4FA",
"y 	c #DADAEC",
"z 	c #9B98CC",
"A 	c #5955AC",
"B 	c #5854A7",
"C 	c #5A56A9",
"D 	c #605BAC",
"E 	c #6866B2",
"F 	c #6F6CB5",
"G 	c #908DC5",
"H 	c #8E8CC5",
"I 	c #8582BF",
"J 	c #8987C1",
"K 	c #8E8BC5",
"L 	c #918EC7",
"M 	c #9491C8",
"N 	c #9492C8",
"O 	c #9795C9",
"P 	c #A2A0CE",
"Q 	c #D7D6EA",
"R 	c #F3F2F8",
"S 	c #F2F1F8",
"T 	c #C2C0E0",
"U 	c #4844A2",
"V 	c #5551A9",
"W 	c #5550A4",
"X 	c #5754A9",
"Y 	c #5955A9",
"Z 	c #5D5AAC",
"` 	c #6865B0",
" .	c #716EB5",
"..	c #A8A7D2",
"+.	c #EEEEF6",
"@.	c #EFEEF6",
"#.	c #F0F0F7",
"$.	c #F1F0F8",
"%.	c #DEDDEE",
"&.	c #CAC9E3",
"*.	c #B8B6DA",
"=.	c #AAA8D3",
"-.	c #A5A3D0",
";.	c #9F9ECE",
">.	c #9B99CB",
",.	c #AAA9D3",
"'.	c #F1F1F8",
").	c #EEEDF5",
"!.	c #F6F6FB",
"~.	c #736FB7",
"{.	c #5450A8",
"].	c #5550A9",
"^.	c #5754A8",
"/.	c #5956A9",
"(.	c #6460AF",
"_.	c #6F6DB4",
":.	c #7673B8",
"<.	c #D6D5E9",
"[.	c #E9E9F3",
"}.	c #E9E9F4",
"|.	c #EBEAF4",
"1.	c #EDECF5",
"2.	c #F3F3F8",
"3.	c #EEEEF7",
"4.	c #EDEDF6",
"5.	c #ECECF5",
"6.	c #F4F4F9",
"7.	c #8380BF",
"8.	c #5651A7",
"9.	c #5854A8",
"0.	c #5855A9",
"a.	c #5A57AA",
"b.	c #5F5CAC",
"c.	c #6966B2",
"d.	c #7572B8",
"e.	c #B3B0D8",
"f.	c #EAEAF5",
"g.	c #ECECF4",
"h.	c #E6E5F1",
"i.	c #DCDCED",
"j.	c #E1E1EF",
"k.	c #E5E5F1",
"l.	c #E8E8F3",
"m.	c #EBEBF3",
"n.	c #F0EFF7",
"o.	c #D4D3E9",
"p.	c #5A56AA",
"q.	c #5854A9",
"r.	c #5855A8",
"s.	c #615EAD",
"t.	c #6D6AB4",
"u.	c #918FC6",
"v.	c #EAE9F3",
"w.	c #EDEDF4",
"x.	c #CDCCE5",
"y.	c #A1A0CE",
"z.	c #A09ECE",
"A.	c #9F9DCD",
"B.	c #9C9BCC",
"C.	c #9A98CA",
"D.	c #9896CA",
"E.	c #9896C9",
"F.	c #9897C9",
"G.	c #A09DCE",
"H.	c #8D8BC4",
"I.	c #6A67B2",
"J.	c #5C59AB",
"K.	c #5753A7",
"L.	c #5752A8",
"M.	c #5652A8",
"N.	c #5652A5",
"O.	c #5955AA",
"P.	c #625FAF",
"Q.	c #6E6CB4",
"R.	c #7977B9",
"S.	c #8381BF",
"T.	c #8A87C2",
"U.	c #A5A4D0",
"V.	c #E5E5F2",
"W.	c #EAEAF4",
"X.	c #DEDDED",
"Y.	c #9D9BCC",
"Z.	c #9C9ACC",
"`.	c #9997CA",
" +	c #9593C7",
".+	c #8886C2",
"++	c #807DBC",
"@+	c #7371B6",
"#+	c #5D59AA",
"$+	c #464293",
"%+	c #474578",
"&+	c #919298",
"*+	c #5A57A9",
"=+	c #5D59AB",
"-+	c #625FAE",
";+	c #6E6BB3",
">+	c #8180BE",
",+	c #8E8BC4",
"'+	c #A4A3D0",
")+	c #E7E6F2",
"!+	c #ECEBF4",
"~+	c #DDDCED",
"{+	c #A6A5D0",
"]+	c #9593C8",
"^+	c #9493C7",
"/+	c #8986C2",
"(+	c #807EBD",
"_+	c #6561B0",
":+	c #605CAC",
"<+	c #5E5BAF",
"[+	c #3A3882",
"}+	c #222254",
"|+	c #9D9DA2",
"1+	c #575777",
"2+	c #5C59AA",
"3+	c #605DAE",
"4+	c #6A67B1",
"5+	c #7573B8",
"6+	c #7D7BBC",
"7+	c #8684BF",
"8+	c #8B89C2",
"9+	c #8F8EC5",
"0+	c #DDDDED",
"a+	c #E6E6F2",
"b+	c #ABAAD3",
"c+	c #8B89C3",
"d+	c #8785C1",
"e+	c #817FBD",
"f+	c #7775B9",
"g+	c #6F6CB4",
"h+	c #6764B0",
"i+	c #6461AF",
"j+	c #605DAD",
"k+	c #3A3781",
"l+	c #131248",
"m+	c #9A9A9F",
"n+	c #45446C",
"o+	c #5B58AA",
"p+	c #6562B0",
"q+	c #6A68B2",
"r+	c #807DBD",
"s+	c #8E8DC5",
"t+	c #8F8EC6",
"u+	c #C1C0DF",
"v+	c #E4E4F1",
"w+	c #E8E8F4",
"x+	c #BEBCDC",
"y+	c #7C7ABB",
"z+	c #6A68B1",
"A+	c #6461AE",
"B+	c #625EAE",
"C+	c #42408A",
"D+	c #17174F",
"E+	c #8D8D95",
"F+	c #35355F",
"G+	c #15144C",
"H+	c #3F3C7A",
"I+	c #5B57AA",
"J+	c #5C5AAB",
"K+	c #9E9DCD",
"L+	c #BEBDDD",
"M+	c #D1D0E7",
"N+	c #DAD9EC",
"O+	c #D3D3E8",
"P+	c #BEBEDD",
"Q+	c #C8C7E2",
"R+	c #C4C3E1",
"S+	c #7B79BB",
"T+	c #6B69B2",
"U+	c #6764B1",
"V+	c #494690",
"W+	c #1D1D52",
"X+	c #7E7F8D",
"Y+	c #424266",
"Z+	c #090941",
"`+	c #403D77",
" @	c #4F4B98",
".@	c #5B58AB",
"+@	c #5C58A9",
"@@	c #C6C4E1",
"#@	c #E5E4F1",
"$@	c #E7E7F2",
"%@	c #E6E5F2",
"&@	c #E7E5F2",
"*@	c #E0DFEF",
"=@	c #E0E0EF",
"-@	c #E2E1F0",
";@	c #D8D8EA",
">@	c #8886C1",
",@	c #6765B0",
"'@	c #52509A",
")@	c #26265D",
"!@	c #6C6C83",
"~@	c #34345B",
"{@	c #01013D",
"]@	c #38346C",
"^@	c #4F4C98",
"/@	c #5551A3",
"(@	c #5E5CAC",
"_@	c #D1D0E8",
":@	c #ECEBF5",
"<@	c #EAE9F4",
"[@	c #DFDEEE",
"}@	c #D1D1E7",
"|@	c #CACAE3",
"1@	c #C8C6E2",
"2@	c #C5C4E1",
"3@	c #C0BFDE",
"4@	c #B9B7DA",
"5@	c #B1B1D7",
"6@	c #B3B3D7",
"7@	c #6B69B3",
"8@	c #605DA6",
"9@	c #2A2A60",
"0@	c #656581",
"a@	c #4A4A65",
"b@	c #00003A",
"c@	c #322F62",
"d@	c #4C4991",
"e@	c #5B58A9",
"f@	c #7674B9",
"g@	c #E2E2F0",
"h@	c #EBEBF5",
"i@	c #EDEDF5",
"j@	c #EFEFF6",
"k@	c #D7D7EA",
"l@	c #9B9ACB",
"m@	c #7978B9",
"n@	c #7472B7",
"o@	c #716FB5",
"p@	c #706FB5",
"q@	c #6D6BB3",
"r@	c #6967B1",
"s@	c #6664AF",
"t@	c #6462AC",
"u@	c #414178",
"v@	c #7A7A8C",
"w@	c #39395C",
"x@	c #000039",
"y@	c #282759",
"z@	c #4B488B",
"A@	c #5754A5",
"B@	c #6E6CB5",
"C@	c #DCDBEC",
"D@	c #E3E3F0",
"E@	c #EEEDF6",
"F@	c #D4D4E9",
"G@	c #6F6EB4",
"H@	c #716FB6",
"I@	c #7573B7",
"J@	c #7674B8",
"K@	c #7473B7",
"L@	c #726FB5",
"M@	c #6D6CB4",
"N@	c #403E7D",
"O@	c #656585",
"P@	c #444463",
"Q@	c #3D3D64",
"R@	c #1F1D52",
"S@	c #484484",
"T@	c #5754A4",
"U@	c #B5B4D9",
"V@	c #E4E4F0",
"W@	c #AFAED6",
"X@	c #7876B9",
"Y@	c #7A78BA",
"Z@	c #7A79BA",
"`@	c #7977BA",
" #	c #7775B8",
".#	c #7472B8",
"+#	c #373577",
"@#	c #606184",
"##	c #464671",
"$#	c #00003C",
"%#	c #1F1F51",
"&#	c #484683",
"*#	c #5753A2",
"=#	c #5D5AAB",
"-#	c #BAB9DD",
";#	c #E0DFEE",
">#	c #DFDFEF",
",#	c #E3E3F1",
"'#	c #D9D9EC",
")#	c #8584C0",
"!#	c #7C7BBA",
"~#	c #7E7DBD",
"{#	c #7F7EBD",
"]#	c #7E7DBC",
"^#	c #5A5897",
"/#	c #55557E",
"(#	c #616187",
"_#	c #060640",
":#	c #141349",
"<#	c #43427D",
"[#	c #5754A1",
"}#	c #5C59A9",
"|#	c #5956A6",
"1#	c #5E5BAC",
"2#	c #5E5BAA",
"3#	c #615FAD",
"4#	c #9695C9",
"5#	c #E4E4F2",
"6#	c #C4C3E0",
"7#	c #908EC5",
"8#	c #7372B6",
"9#	c #7F7DBC",
"0#	c #8381BE",
"a#	c #6C6AA8",
"b#	c #333364",
"c#	c #67678B",
"d#	c #0E0E47",
"e#	c #111146",
"f#	c #474679",
"g#	c #5856A0",
"h#	c #5B59AA",
"i#	c #5D5BAB",
"j#	c #7170B6",
"k#	c #C7C6E1",
"l#	c #EFEFF7",
"m#	c #E1E0EF",
"n#	c #ADACD4",
"o#	c #8C8BC3",
"p#	c #7C7BB5",
"q#	c #232359",
"r#	c #717192",
"s#	c #1B1B51",
"t#	c #080840",
"u#	c #4A4875",
"v#	c #6260A1",
"w#	c #6462AE",
"x#	c #5E5BAB",
"y#	c #5956A7",
"z#	c #5F5DAC",
"A#	c #8F8DC5",
"B#	c #C9C9E3",
"C#	c #474674",
"D#	c #616186",
"E#	c #2A2A5D",
"F#	c #06073E",
"G#	c #43416E",
"H#	c #6665A0",
"I#	c #716EB3",
"J#	c #5955A7",
"K#	c #6563B0",
"L#	c #7371B7",
"M#	c #8482BF",
"N#	c #B3B3D8",
"O#	c #CBCBE4",
"P#	c #DDDDEE",
"Q#	c #E6E6F1",
"R#	c #777797",
"S#	c #3C3C6B",
"T#	c #2C2C5F",
"U#	c #06063D",
"V#	c #7B7A88",
"W#	c #B0AEC2",
"X#	c #918FC4",
"Y#	c #6562AF",
"Z#	c #8887C1",
"`#	c #8D8DC4",
" $	c #9190C6",
".$	c #9492C7",
"+$	c #8180B0",
"@$	c #77768D",
"#$	c #28285C",
"$$	c #717180",
"%$	c #C8C7CC",
"&$	c #ECEBF1",
"*$	c #F5F4F9",
"=$	c #A3A1CF",
"-$	c #5A57A6",
";$	c #5E5CAB",
">$	c #6866B1",
",$	c #A09ECD",
"'$	c #B1B0D6",
")$	c #C7C8E2",
"!$	c #CECEE2",
"~$	c #2B2A5D",
"{$	c #262657",
"]$	c #535370",
"^$	c #686879",
"/$	c #BDBDC4",
"($	c #E2E1EB",
"_$	c #E2E1EF",
":$	c #CCCBE5",
"<$	c #5855A6",
"[$	c #5A57A7",
"}$	c #5F5CAB",
"|$	c #7372B7",
"1$	c #8C8AC3",
"2$	c #9694C8",
"3$	c #9E9DCB",
"4$	c #474677",
"5$	c #1F1F54",
"6$	c #00003B",
"7$	c #3A3A61",
"8$	c #7C7AA1",
"9$	c #8F8DC0",
"0$	c #8784BF",
"a$	c #7270B5",
"b$	c #605EAD",
"c$	c #706EB4",
"d$	c #62609E",
"e$	c #1D1D54",
"f$	c #302E5B",
"g$	c #5E5C8F",
"h$	c #6D6BAE",
"i$	c #5C59A8",
"j$	c #5F5DAA",
"k$	c #222260",
"l$	c #292759",
"m$	c #4E4C88",
"n$	c #5C5AA5",
"o$	c #5C5AAC",
"p$	c #5B58A7",
"q$	c #5C59A7",
"r$	c #5D5BAA",
"s$	c #3C3A80",
"t$	c #02023C",
"u$	c #2E2D60",
"v$	c #4C4A89",
"w$	c #5957A4",
"x$	c #5D5AAA",
"y$	c #070743",
"z$	c #323167",
"A$	c #4A4887",
"B$	c #56549E",
"C$	c #5A58A5",
"                          . . + + @ +                           ",
"                  # . $ % & * = - ; * > @ @ ,                   ",
"                ' ) ! ~ { ] ^ / ( _ : < [ } | @ #               ",
"            1 ! ! 2 3 4 5 6 7 8 9 0 a b c d e f g @             ",
"          h 2 i j k l m n o p q r s t u v w x y z A .           ",
"        1 ! B C D E F 8 G H I J K L M N O P Q R S T U V         ",
"      W X i Y Z `  ...+.@.#.$.%.&.*.=.-.;.>.,.'.).!.~.{.].      ",
"      i ^./.{ (._.:.<.[.}.|.1.+.S 2.S #.3.4.#.+.5.6.7.8.!       ",
"    h 9.0.a.b.c.d.o e.f.[.|.g.h.%.i.j.k.l.m.n.w n.o.p.q.! '     ",
"    9.r.Y 3 s.t.7 7.u.%.v.w.x.y.z.A.B.C.D.E.F.G.H.I.J.Y K.L.M.  ",
"  N.Y O./.3 P.Q.R.S.T.U.V.W.X.U.Y.Z.`. +G .+++@+I.s.#+C j $+%+&+",
"  q.O./.*+=+-+;+7 >+T.,+'+)+!+~+{+]+^+G /+(+n t._+:+#+<+[+}+|+1+",
"  Y /.a.a.2+3+4+5+6+7+8+9+>.0+W.a+b+c+d+e+f+g+h+i+j+k k+l+m+n+  ",
"  Y /.a.o+2+b.p+q+6 r+.+s+t+u.u+v+w+x+y+:._.z+h+A+B+C+D+E+F+G+H+",
"  /.a.I+2+2+J+6 K+L+M+N+i.y O+P+Q+i.V.R+S+T+I.U+i+V+W+X+Y+Z+`+ @",
"  C a..@+@a.@@#@[.}.l.)+$@%@%@&@j.*@=@-@;@>@,@U+'@)@!@~@{@]@^@/@",
"  a.o+3 (@_@n.4.:@}.<@f.)+[@}@|@1@2@3@4@5@6@7@8@9@0@a@b@c@d@B K.",
"  p.o+e@f@g@l.h@4.i@j@k@l@m@n@o@p@g+q@7@r@s@t@u@v@w@x@y@z@A@O.N.",
"  a.o+o+B@C@D@)+[.E@F@G@q+H@@+I@J@K@n@L@M@T+N@O@P@Q@R@S@T@p./.  ",
"  I+e@J.2+U@v j.V@W.W@h+o@I@X@Y@S+Z@`@ #.#+#@###$#%#&#*#a.C Y   ",
"  *+o+J.=#e@-#;#>#,#'#)#@+f+!#~#9 {#]#6+^#/#(#_#:#<#[#}#I+/.Y   ",
"  |#o+J.1#2#3#4#,#=@5#j.6#7#8#9#0#0#0#a#b#c#d#e#f#g#2+h#I+C B   ",
"    e@J.i#=#(@o+j#k#;#k.l.l#m#n#^+o#p#q#r#s#t#u#v#w#x#o+I+C     ",
"    y#J.=#i#1#z#3#T+A#B##@+.+.#.j@+.C#D#E#F#G#H#I#l x#h#a.J#    ",
"      }#Z Z x#b.K#L#6+M#l@N#O#P#Q#R#S#T#U#V#W#X#o@Y#o+3 a.      ",
"        =#=#i#b.l n@(+Z#`# $N .$+$@$#$x@$$%$&$*$=$2+o+.@        ",
"        -$=#=#;$>$8+,$'$L+)$u !$~${$]$^$/$($_$:$d.}#a.<$        ",
"          [$Z =#}$p+|$>+1$2$3$4$5$6$7$8$9$0$a$b.a.J.|#          ",
"              =#=#x#b$,@c$J@d$e$$#f$g$h$T+-+=#J.}#              ",
"                i$i#x#=#(@j$k$$#l$m$n$}$i#o$J.p$                ",
"                    q$r$2#s$t$u$v$w$=#=#x$-$                    ",
"                          y$z$A$B$C$                            "};
