/* XPM */
static char *firefox_32x32[] = {
/* columns rows colors chars-per-pixel */
"32 32 233 2 ",
"   c #1C1B19",
".  c #261D0E",
"X  c #3C1F1D",
"o  c #20211F",
"O  c #2C2018",
"+  c #392B16",
"@  c #262221",
"#  c #242523",
"$  c #2F2A29",
"%  c #2B2C2A",
"&  c #323331",
"*  c #4D340F",
"=  c #4D2B1B",
"-  c #5A201F",
";  c #44371F",
":  c #49352E",
">  c #423738",
",  c #4A3438",
"<  c #642621",
"1  c #713226",
"2  c #5C4914",
"3  c #62451A",
"4  c #6A5015",
"5  c #504525",
"6  c #544A2A",
"7  c #6F4222",
"8  c #6D5426",
"9  c #6A4A36",
"0  c #1A3564",
"q  c #38405C",
"w  c #2D4D7D",
"e  c #344D78",
"r  c #4F4943",
"t  c #4D515E",
"y  c #645647",
"u  c #775849",
"i  c #655C61",
"p  c #7B736D",
"a  c #882326",
"s  c #982127",
"d  c #863525",
"f  c #A42428",
"g  c #AC2C2E",
"h  c #BE3C2F",
"j  c #B73530",
"k  c #B93030",
"l  c #B13934",
"z  c #BD3C35",
"x  c #A16E1E",
"c  c #835722",
"v  c #895E22",
"b  c #8C5B34",
"n  c #A84328",
"m  c #AA4B2C",
"M  c #A9562A",
"N  c #BE4332",
"B  c #B34D31",
"V  c #BC4839",
"C  c #97712B",
"Z  c #99683D",
"A  c #A76430",
"S  c #BF6232",
"D  c #C1452E",
"F  c #C35829",
"G  c #C25132",
"H  c #C45B3A",
"J  c #C4652F",
"K  c #C8632F",
"L  c #D76E2D",
"P  c #D5732E",
"I  c #DB772B",
"U  c #C76336",
"Y  c #CC6137",
"T  c #CF6F38",
"R  c #D16F32",
"E  c #C67835",
"W  c #D37736",
"Q  c #DC7E36",
"!  c #D4793E",
"~  c #D67F3C",
"^  c #816D42",
"/  c #BB7641",
"(  c #8E7A65",
")  c #A67B61",
"_  c #D06B43",
"`  c #C27B40",
"'  c #D07642",
"]  c #D47F42",
"[  c #9C891C",
"{  c #B29C1E",
"}  c #B18127",
"|  c #B69424",
" . c #B0823E",
".. c #C3813C",
"X. c #DB8231",
"o. c #DA8733",
"O. c #D88036",
"+. c #D78B34",
"@. c #DC8935",
"#. c #D88639",
"$. c #D48939",
"%. c #DB893C",
"&. c #DE9333",
"*. c #D69B3D",
"=. c #E49F2B",
"-. c #DBA82D",
";. c #D5AF30",
":. c #EFA82C",
">. c #F0BA2E",
",. c #E2A332",
"<. c #E2A931",
"1. c #EFAE30",
"2. c #EDB232",
"3. c #E6BD31",
"4. c #F3C82F",
"5. c #F2D42C",
"6. c #FBDF2D",
"7. c #F7C639",
"8. c #F3D438",
"9. c #A38052",
"0. c #B48352",
"q. c #BD8556",
"w. c #898169",
"e. c #A68A77",
"r. c #AB9C78",
"t. c #CF8644",
"y. c #C88B44",
"u. c #C6854D",
"i. c #DD8B44",
"p. c #DC9040",
"a. c #D5904B",
"s. c #DB9248",
"d. c #DD974B",
"f. c #CF945F",
"g. c #E2954C",
"h. c #C8AC4A",
"j. c #C9A353",
"k. c #C2A55F",
"l. c #D6BE53",
"z. c #F4B94A",
"x. c #F0BF4C",
"c. c #CA9B6E",
"v. c #D09B63",
"b. c #CE9F7E",
"n. c #CCAB73",
"m. c #E2A163",
"M. c #F3D442",
"N. c #F8DF4B",
"B. c #E8CD53",
"V. c #F2C55F",
"C. c #F5CD5E",
"Z. c #FCE849",
"A. c #D9CA6A",
"S. c #DBCA7E",
"D. c #F5D474",
"F. c #F7E26C",
"G. c #1E3180",
"H. c #062F9E",
"J. c #163F93",
"K. c #254FAE",
"L. c #375CB3",
"P. c #405D8F",
"I. c #596C8F",
"U. c #787C8A",
"Y. c #697C93",
"T. c #486BA3",
"R. c #4D6BBA",
"E. c #5A78B8",
"W. c #5D78BF",
"Q. c #356ECA",
"!. c #376DD0",
"~. c #1B67E4",
"^. c #2E70E0",
"/. c #3B79E3",
"(. c #4570C7",
"). c #4B7CC6",
"_. c #4078C8",
"`. c #5077C6",
"'. c #4273DE",
"]. c #4A7ADF",
"[. c #5079D1",
"{. c #7285B2",
"}. c #738DB3",
"|. c #5B81C4",
" X c #5183DB",
".X c #5D86D9",
"XX c #5D93DE",
"oX c #7796D2",
"OX c #4380E3",
"+X c #4A87E4",
"@X c #5685E5",
"#X c #538FE7",
"$X c #5C8CE5",
"%X c #5794E5",
"&X c #6389E3",
"*X c #6496E9",
"=X c #6C93E8",
"-X c #719BE9",
";X c #7CA7EF",
":X c #928C8B",
">X c #838796",
",X c #A48887",
"<X c #A39684",
"1X c #B5A08A",
"2X c #B6AB8C",
"3X c #AAAB96",
"4X c #828DA6",
"5X c #8F9AA7",
"6X c #8292BD",
"7X c #A09DAE",
"8X c #F6D982",
"9X c #E1D890",
"0X c #F5E99A",
"qX c #91A5CA",
"wX c #9EADCD",
"eX c #8BA8D8",
"rX c #9AB2DE",
"tX c #8CAEE4",
"yX c #83A7EA",
"uX c #83A5EE",
"iX c #91B0ED",
"pX c #9DB6EE",
"aX c #9BB8E8",
"sX c #89ADF0",
"dX c #96B4F2",
"fX c #9ABCF3",
"gX c #A9C1ED",
"hX c #B4C8E7",
"jX c #B0C3EA",
"kX c #A4C0F2",
"lX c #B5CCF2",
"zX c #B0C8F4",
"xX c None",
/* pixels */
"xXxXxXxXxXxXxXxXxXxXxXxXxXxXxXxXxXxXxXxXxXxXxXxXxXxXxXxXxXxXxXxX",
"xXxXxXxXxXxXxXxXxXxXxX9.xXxXxXxXxXxXxXxXxXxXxXxXxXxXxXxXxXxXxXxX",
"xXxXxXxXxXxXxXxXxXxXg.Z xXxXxXxXxXxXxXxXxXxXxXxXxXxXxXxXxXxXxXxX",
"xXxXxXxXxXxXxXxXxXR O./ G.H.K.R.`.W.R.xXxXxXxXxXxXxXxXxXxXxXxXxX",
"xXxXxXxXxXxXxXxXE i.g.m.b.7XtXtXaXgXjXjXoXL.xXxXxXxXxXxXxXxXxXxX",
"xXxXxXxXxXxXxXd.s.p.$.p.g.d.c.v.c.:XwXzXlXhXoXxXxXxXxXxXxXxXxXxX",
"xXxXxXxXxXxXd.d.+.o.@.#.$.p.@...r I.eXkXzXzXlXrXK.xXxXxXxXxXxXxX",
"xXxXxXxXxXy.d.%.p.%.@.@.#.p.+.b {.iXkXkXkXzXzXhX>XJ.xXxXxXxXxXxX",
"xXxXxXxXxX] p.p.o.%.%.%.@.#.O.M 6XiXiXkXzXkXzXzXwXw.xXxXxXxXxXxX",
"xXxXxXxXH ~ @.%.@.$.%.%.%.%.t.! R ,XyXyXkXfXaXgX<Xr.;.xXxXxXxXxX",
"xXxXxXxXG p.%.%.p.%.%.%.%.p.f.1XZ 9 E.uXyXiXpXaXqXk.z.-.xXxXxXxX",
"xXxXxXxXW p.$.#.O.S m M A a.y w P.T..X=XuXuXdXfXpX5XM.V.x xXxXxX",
"xXxXxXl ' o.@.%.S n n 1 0 t e @X$X$X=XuX=XuX;XsXpXaXh.F.} xXxXxX",
"xXxXxXV K %.@.o.K F F u '.!.Q.OX@X@X*X*X-X*X-X;XsXiXr.5.| 8 xXxX",
"xXxXxXg R @.%.$.P L R ` (.'./.].OX+X&X=X-X-X=X-XyXsXU.>.2.^ xXxX",
"xXxXxXl T #.@.#.O.I P #.) [./.].].OX@X&X=X-XuX-XuX{.( =.V.6 xXxX",
"xXxXxXf Y W %.@.@.O.J S $.$.q.e.E./.OXOX@X&X&X].~.2X*.z.l.xXxXxX",
"xXxXxXs G Y p.@.o.#.` 1 m E i.i.n.`.].Q./.^./.^.E.M.V.M.[ xXxXxX",
"xXxXxXxXG h t.o.o.+.o.i q , : > y P.OX/.OXOXW.T.j.7.0X7.4 xXxXxX",
"xXxXxXxXg h _ N @.o.+...|.).)._._._.+XOXOXOX3X*.1.N.D.,.* xXxXxX",
"xXxXxXxXa k k V T $.o.p.0.XX%X%X#X#X#X#X X}.8X:.4.6.2.C xXxXxXxX",
"xXxXxXxXxXg k j h ] Q +.$.u.4XXX%XXX}.p Y.B.C.2.4.>.j.. xXxXxXxX",
"xXxXxXxXxX- g k k z ' ~ %.s.%.$.t.#.#. .>.8.:.2.x.S.; xXxXxXxXxX",
"xXxXxXxXxX% < l k k z _ ~ %.i.$.#.@.%.&.2.z.D.8X9X6 o xXxXxXxXxX",
"xXxXxXxXxX& $ - g k z N H ] %.%.#.Q X.&.V.0XZ.A.5   & xXxXxXxXxX",
"xXxXxXxXxX& & & X a z D G S W #.&.<.4.Z.F.8.{ + @ & & xXxXxXxXxX",
"xXxXxXxXxXxX& & & # X d B U ] +.*.3.5.3.| 2 o % & & xXxXxXxXxXxX",
"xXxXxXxXxXxXxX& & & % o O = 7 c v c 3 +   o & & & & xXxXxXxXxXxX",
"xXxXxXxXxXxXxXxXxX& & & & % # o @ o # $ & & & & xXxXxXxXxXxXxXxX",
"xXxXxXxXxXxXxXxXxXxXxXxXxX& & & & & & & xXxXxXxXxXxXxXxXxXxXxXxX",
"xXxXxXxXxXxXxXxXxXxXxXxXxXxXxXxXxXxXxXxXxXxXxXxXxXxXxXxXxXxXxXxX",
"xXxXxXxXxXxXxXxXxXxXxXxXxXxXxXxXxXxXxXxXxXxXxXxXxXxXxXxXxXxXxXxX"
};
